<?xml version="1.0" standalone="no"?>
<!DOCTYPE svg PUBLIC "-//W3C//DTD SVG 20010904//EN"
 "http://www.w3.org/TR/2001/REC-SVG-20010904/DTD/svg10.dtd">
<svg version="1.0" xmlns="http://www.w3.org/2000/svg"
 width="512.000000pt" height="512.000000pt" viewBox="0 0 512.000000 512.000000"
 preserveAspectRatio="xMidYMid meet">
<metadata>
Created by potrace 1.14, written by Peter Selinger 2001-2017
</metadata>
<g transform="translate(0.000000,512.000000) scale(0.100000,-0.100000)"
fill="#000000" stroke="none">
<path d="M2201 4858 c-4 -13 -77 -212 -160 -443 -84 -231 -157 -431 -162 -445
-6 -14 -31 -81 -55 -150 -24 -69 -47 -132 -51 -140 -3 -8 -7 -19 -9 -25 -1 -5
-46 -129 -100 -275 -53 -146 -103 -283 -111 -305 -8 -22 -204 -560 -435 -1195
-231 -635 -437 -1202 -458 -1260 -79 -218 -119 -326 -125 -343 -7 -16 11 -17
315 -15 l322 3 13 35 c8 19 36 98 64 175 140 394 264 735 279 774 l18 44 1009
-2 c555 -1 1012 -5 1016 -9 3 -4 86 -230 184 -502 98 -272 180 -501 182 -507
4 -10 78 -13 324 -13 175 0 319 3 319 6 0 5 -208 583 -290 804 -21 58 -127
350 -235 650 -108 300 -212 586 -230 635 -19 50 -82 223 -140 385 -58 162
-113 313 -121 335 -9 22 -30 81 -46 130 -17 50 -34 95 -38 100 -4 6 -10 24
-14 40 -4 17 -13 44 -21 60 -7 17 -124 338 -260 715 -136 377 -254 702 -262
723 l-15 37 -349 0 -349 0 -9 -22z m614 -1453 c544 -1517 575 -1605 575 -1610
0 -3 -376 -5 -836 -5 -792 0 -836 1 -829 18 4 9 29 80 57 157 27 77 60 169 72
205 13 36 58 162 100 280 42 118 83 231 91 250 7 19 70 193 138 385 326 914
371 1036 378 1023 4 -7 118 -323 254 -703z"/>
</g>
</svg>
